<svg width="20" height="20" viewBox="0 0 20 20" fill="none" xmlns="http://www.w3.org/2000/svg">
<path id="Vector" d="M10 6L8.6 7.4L10.2 9L6 9L6 11L10.2 11L8.6 12.6L10 14L14 10L10 6ZM10 -8.74228e-07C11.3833 -7.53293e-07 12.6833 0.262666 13.9 0.788C15.1167 1.31333 16.175 2.02566 17.075 2.925C17.975 3.825 18.6873 4.88333 19.212 6.1C19.7367 7.31667 19.9993 8.61667 20 10C20 11.3833 19.7373 12.6833 19.212 13.9C18.6867 15.1167 17.9743 16.175 17.075 17.075C16.175 17.975 15.1167 18.6873 13.9 19.212C12.6833 19.7367 11.3833 19.9993 10 20C8.61667 20 7.31667 19.7373 6.1 19.212C4.88333 18.6867 3.825 17.9743 2.925 17.075C2.025 16.175 1.31233 15.1167 0.787001 13.9C0.261668 12.6833 -0.000666819 11.3833 8.74228e-07 10C9.95163e-07 8.61667 0.262668 7.31667 0.788001 6.1C1.31333 4.88333 2.02567 3.825 2.925 2.925C3.825 2.025 4.88333 1.31233 6.1 0.786999C7.31667 0.261666 8.61667 -0.000668567 10 -8.74228e-07Z" fill="#F34213"/>
</svg>
