<svg xmlns="http://www.w3.org/2000/svg" width="18" height="16" viewBox="0 0 18 16" fill="none">
<path d="M1.45984 7.99992H2.28308M2.28308 7.99992H15.4549M2.28308 7.99992V9.66659C2.28308 10.6149 2.76303 12.3733 4.54287 12.8674M15.4549 7.99992C15.6733 7.99992 15.8827 7.91212 16.037 7.75584C16.1914 7.59956 16.2782 7.3876 16.2782 7.16659V3.83325C16.2782 2.99992 15.7842 1.33325 13.8084 1.33325C11.8327 1.33325 11.3387 2.99992 11.3387 3.83325M15.4549 7.99992V9.66659C15.4549 10.6149 14.975 12.3733 13.1951 12.8674M11.3387 3.83325H9.69224M11.3387 3.83325H12.9852M13.1951 12.8674C12.8582 12.9584 12.5107 13.003 12.162 12.9999H5.57604C5.19076 12.9999 4.84747 12.9524 4.54287 12.8674M13.1951 12.8674L13.8084 14.6666M4.54287 12.8674L3.92956 14.6666" stroke="white" stroke-width="2" stroke-linecap="round" stroke-linejoin="round"/>
</svg>