<svg xmlns="http://www.w3.org/2000/svg" width="15" height="11" viewBox="0 0 15 11" fill="none">
  <path d="M13.4067 4.48606V2.5555C13.4067 1.40967 12.4806 0.472168 11.3486 0.472168H8.60447C8.07623 0.472168 7.596 0.680501 7.2324 1.01383C6.86881 0.680501 6.38858 0.472168 5.86034 0.472168H3.1162C1.98425 0.472168 1.0581 1.40967 1.0581 2.5555V4.48606C0.639623 4.868 0.37207 5.41661 0.37207 6.02772V10.1944H1.74414V8.8055H12.7207V10.1944H14.0927V6.02772C14.0927 5.41661 13.8252 4.868 13.4067 4.48606ZM8.60447 1.86106H11.3486C11.7259 1.86106 12.0346 2.17356 12.0346 2.5555V3.94439H7.91844V2.5555C7.91844 2.17356 8.22715 1.86106 8.60447 1.86106ZM2.43017 2.5555C2.43017 2.17356 2.73889 1.86106 3.1162 1.86106H5.86034C6.23766 1.86106 6.54637 2.17356 6.54637 2.5555V3.94439H2.43017V2.5555ZM1.74414 7.41661V6.02772C1.74414 5.64578 2.05285 5.33328 2.43017 5.33328H12.0346C12.412 5.33328 12.7207 5.64578 12.7207 6.02772V7.41661H1.74414Z" fill="white"/>
</svg>