<svg xmlns="http://www.w3.org/2000/svg" width="22" height="19" viewBox="0 0 22 19" fill="none">
  <path d="M22 6.13686C22 13.0656 11.8063 18.6739 11.3722 18.9055C11.2578 18.9675 11.1299 19 11 19C10.8701 19 10.7422 18.9675 10.6278 18.9055C10.1937 18.6739 0 13.0656 0 6.13686C0.00181965 4.50983 0.643952 2.94996 1.78552 1.79947C2.92709 0.648983 4.47487 0.00183387 6.08929 0C8.11741 0 9.89312 0.878957 11 2.36467C12.1069 0.878957 13.8826 0 15.9107 0C17.5251 0.00183387 19.0729 0.648983 20.2145 1.79947C21.356 2.94996 21.9982 4.50983 22 6.13686Z" fill="#F44A4A"/>
</svg>