<svg xmlns="http://www.w3.org/2000/svg" width="22" height="19" viewBox="0 0 22 19" fill="none">
  <path d="M15.5455 1C13.6364 1 11.9764 1.85622 11 3.29108C10.0236 1.85622 8.36364 1 6.45455 1C5.00843 1.00168 3.62202 1.57375 2.59946 2.59074C1.5769 3.60773 1.00168 4.98658 1 6.42482C1 9.0649 2.65455 11.8126 5.91818 14.5901C7.41368 15.8575 9.0291 16.9778 10.7418 17.9354C10.8212 17.9778 10.9099 18 11 18C11.0901 18 11.1788 17.9778 11.2582 17.9354C12.9709 16.9778 14.5863 15.8575 16.0818 14.5901C19.3455 11.8126 21 9.0649 21 6.42482C20.9983 4.98658 20.4231 3.60773 19.4005 2.59074C18.378 1.57375 16.9916 1.00168 15.5455 1ZM11 16.8323C9.50818 15.9761 2.09091 11.4627 2.09091 6.42482C2.09211 5.27419 2.55224 4.17102 3.37032 3.3574C4.1884 2.54378 5.29761 2.08616 6.45455 2.08496C8.29818 2.08496 9.84636 3.06414 10.4955 4.64096C10.5365 4.74045 10.6065 4.82556 10.6963 4.88545C10.7861 4.94534 10.8918 4.97731 11 4.97731C11.1082 4.97731 11.2139 4.94534 11.3037 4.88545C11.3935 4.82556 11.4635 4.74045 11.5045 4.64096C12.1536 3.06414 13.7018 2.08496 15.5455 2.08496C16.7024 2.08616 17.8116 2.54378 18.6297 3.3574C19.4478 4.17102 19.9079 5.27419 19.9091 6.42482C19.9091 11.4627 12.4918 15.9761 11 16.8323Z" fill="#EAEAEA" stroke="#F44A4A" stroke-width="2"/>
</svg>