 <svg xmlns="http://www.w3.org/2000/svg" width="16" height="16" viewBox="0 0 16 16" fill="none">
                    <path d="M8 0C6.67392 0 5.40215 0.526784 4.46447 1.46447C3.52678 2.40215 3 3.67392 3 5C3 10 8 16 8 16C8 16 13 10 13 5C13 3.67392 12.4732 2.40215 11.5355 1.46447C10.5979 0.526784 9.32608 0 8 0ZM8 8.063C7.59776 8.063 7.19946 7.98377 6.82784 7.82984C6.45622 7.67591 6.11856 7.45029 5.83413 7.16587C5.54971 6.88144 5.32409 6.54378 5.17016 6.17216C5.01623 5.80054 4.937 5.40224 4.937 5C4.937 4.59776 5.01623 4.19946 5.17016 3.82784C5.32409 3.45622 5.54971 3.11856 5.83413 2.83413C6.11856 2.54971 6.45622 2.32409 6.82784 2.17016C7.19946 2.01623 7.59776 1.937 8 1.937C8.81236 1.937 9.59144 2.25971 10.1659 2.83413C10.7403 3.40856 11.063 4.18764 11.063 5C11.063 5.81236 10.7403 6.59144 10.1659 7.16587C9.59144 7.74029 8.81236 8.063 8 8.063ZM6.063 5C6.063 4.48601 6.26718 3.99307 6.63063 3.62963C6.99407 3.26618 7.48701 3.062 8.001 3.062C8.51499 3.062 9.00793 3.26618 9.37137 3.62963C9.73482 3.99307 9.939 4.48601 9.939 5C9.939 5.51399 9.73482 6.00693 9.37137 6.37037C9.00793 6.73382 8.51499 6.938 8.001 6.938C7.48701 6.938 6.99407 6.73382 6.63063 6.37037C6.26718 6.00693 6.063 5.51399 6.063 5Z" fill="white"/>
                </svg>