<svg xmlns="http://www.w3.org/2000/svg" width="16" height="16" viewBox="0 0 16 16" fill="none">
    <path fill-rule="evenodd" clip-rule="evenodd" d="M10.7579 3.15208L11.9779 4.37208C13.7699 6.16542 14.6666 7.06142 14.6666 8.17475C14.6666 9.28875 13.7699 10.1847 11.9773 11.9774C10.1846 13.7714 9.28862 14.6668 8.17462 14.6668C7.06128 14.6668 6.16462 13.7701 4.37195 11.9774L3.15195 10.7574C2.12195 9.72742 1.60662 9.21275 1.41528 8.54408C1.22328 7.87542 1.38728 7.16542 1.71528 5.74608L1.90395 4.92742C2.17928 3.73275 2.31728 3.13542 2.72595 2.72608C3.13528 2.31742 3.73262 2.17942 4.92728 1.90408L5.74595 1.71475C7.16595 1.38742 7.87528 1.22342 8.54395 1.41475C9.21262 1.60675 9.72795 2.12208 10.7579 3.15208ZM7.43128 9.55208C6.98262 9.10408 6.98595 8.46008 7.25462 7.95008C7.1881 7.85401 7.15734 7.73768 7.16767 7.62129C7.17799 7.5049 7.22875 7.3958 7.31114 7.31294C7.39353 7.23008 7.50233 7.17869 7.61866 7.16769C7.73499 7.1567 7.8515 7.18679 7.94795 7.25275C8.17462 7.13275 8.42328 7.06875 8.67128 7.07142C8.80389 7.07265 8.93058 7.12652 9.02347 7.22116C9.11636 7.31581 9.16785 7.44347 9.16662 7.57608C9.16538 7.70869 9.11151 7.83538 9.01687 7.92827C8.92223 8.02116 8.79456 8.07265 8.66195 8.07142C8.50758 8.07712 8.36169 8.14348 8.25595 8.25608C7.99795 8.51408 8.06528 8.77275 8.13795 8.84542C8.21128 8.91808 8.46928 8.98542 8.72728 8.72742C9.24995 8.20475 10.1526 8.03142 10.7306 8.60942C11.1793 9.05808 11.176 9.70208 10.9073 10.2121C10.9734 10.3082 11.0038 10.4243 10.9933 10.5405C10.9828 10.6567 10.932 10.7655 10.8497 10.8481C10.7675 10.9308 10.6589 10.9821 10.5428 10.9932C10.4267 11.0042 10.3104 10.9744 10.214 10.9088C9.91477 11.0728 9.56776 11.1275 9.23262 11.0634C9.10266 11.0367 8.98863 10.9595 8.91562 10.8487C8.84261 10.7379 8.81659 10.6027 8.84328 10.4727C8.86998 10.3428 8.94721 10.2288 9.05798 10.1558C9.16876 10.0827 9.30399 10.0567 9.43395 10.0834C9.55195 10.1081 9.74262 10.0694 9.90595 9.90608C10.164 9.64742 10.0966 9.38942 10.024 9.31675C9.95062 9.24408 9.69262 9.17675 9.43462 9.43475C8.91195 9.95742 8.00928 10.1307 7.43128 9.55208ZM6.68062 6.86208C6.80441 6.73825 6.9026 6.59124 6.96958 6.42946C7.03656 6.26767 7.07102 6.09428 7.07098 5.91918C7.07095 5.74408 7.03643 5.5707 6.9694 5.40894C6.90236 5.24718 6.80412 5.10021 6.68028 4.97642C6.55645 4.85262 6.40944 4.75443 6.24766 4.68745C6.08587 4.62048 5.91248 4.58602 5.73738 4.58605C5.56228 4.58608 5.3889 4.6206 5.22714 4.68764C5.06538 4.75467 4.91841 4.85291 4.79462 4.97675C4.54461 5.22685 4.40419 5.56602 4.40425 5.91965C4.40431 6.27328 4.54485 6.61241 4.79495 6.86242C5.04505 7.11243 5.38422 7.25285 5.73785 7.25278C6.09148 7.25272 6.43061 7.11218 6.68062 6.86208Z" fill="white"/>
</svg>