<?xml version="1.0" encoding="UTF-8"?>
<svg id="Layer_9" data-name="Layer 9" xmlns="http://www.w3.org/2000/svg" xmlns:xlink="http://www.w3.org/1999/xlink" viewBox="0 0 1000 1000">
  <defs>
    <style>
      .cls-1 {
        font-family: BigJohn, 'Big John';
      }

      .cls-2 {
        font-family: SlimJoe, 'Slim Joe';
      }

      .cls-3 {
        fill: #2bb673;
        font-size: 100px;
      }

      .cls-4 {
        stroke: #2ab673;
      }

      .cls-4, .cls-5, .cls-6 {
        fill: none;
      }

      .cls-4, .cls-6 {
        stroke-miterlimit: 10;
        stroke-width: 27px;
      }

      .cls-7 {
        clip-path: url(#clippath);
      }

      .cls-6 {
        stroke: #2bb673;
        stroke-linecap: square;
      }
    </style>
    <clipPath id="clippath">
      <rect class="cls-5" x="452.03" y="118.1" width="291.24" height="258.67"/>
    </clipPath>
  </defs>
  <path class="cls-6" d="m519.96,566.25l3,91.11s155.54-85.78,76.01-134.44l-49.42-23.47c-21.76-10.33-35.68-32.2-35.84-56.29v-1.51c-.24-35.49,37.56-58.01,68.48-41,47.71,26.25,118.64,64.49,118.64,64.49-16.06,96-68.37,181.77-198.17,239.68l-111.1-175.21,55.34-28.96c21.78-11.4,35.35-34.03,35.15-58.62l-.02-2.77c-.29-34.87-37.61-56.87-68.26-40.26l-38.91,21.09v200.85c-55.26-53.56-81.51-129.94-81.51-236.38l203.51-99.51,119.48,64.77.69-47.09,37.17,18.3-1.03,49.19,86.1,46.51h0c0,124.01-68.4,237.91-177.87,296.18l-62.67,33.36-65.84-35.62c-107.98-58.42-175.43-171.14-175.87-293.91l-.29-80.65V113.73h486.54v243.74"/>
  <g class="cls-7">
    <path class="cls-4" d="m660.06,197.87c-1.63-.55-3.26-1.02-4.9-1.41,12.59-12.05,22.57-27.2,28.57-44.84,19.94-58.63-11.43-122.32-70.06-142.25-25.46-8.66-51.87-7.63-75.24,1.09,23.54-79.45-19.7-163.98-98.85-190.9-81.14-27.59-169.29,15.82-196.89,96.96-27.59,81.14,15.82,169.29,96.96,196.89,43.71,14.86,89.45,9.11,126.67-12.03-6.64,51.8,23.79,102.83,75.15,120.3,16.9,5.75,34.23,7.21,50.8,5-.86,1.84-1.64,3.74-2.31,5.71-9.82,28.89,5.63,60.27,34.52,70.1,28.89,9.82,60.27-5.63,70.1-34.52,9.82-28.89-5.63-60.27-34.52-70.1Z"/>
  </g>
  <text class="cls-3" transform="translate(165.38 888.91)"><tspan class="cls-2" x="0" y="0">Rent</tspan><tspan class="cls-1" x="279.1" y="0">Shield</tspan></text>
</svg>