<svg data-name="rslogo" xmlns="http://www.w3.org/2000/svg" viewBox="0 0 142.32 157.3">
    <path d="m138.82 41.29-13.45-8.19a2.836 2.836 0 0 1-1.36-2.42V14.22h-20.43v8.68L72.95 3.5 3.5 43.84v2.64h15.32v70.89l16.85 10.72.51-85.28 1.53-5.11 26.04-15.83 3.57 2.55 1.53 3.4.68 37.96-1.36 2.89-20.43 14.3 32 70.81 48.34-38.13-1.7-69.19-5.79-3.66-36.77-19.74-1.7 2.04.34 37.11.68 3.06 32.34 19.4 2.72 4.09v21.45l-2.72 4.09-30.64 22.81-3.4-.68-.34-22.81" style="fill:none;stroke:#f1f2f2;stroke-linecap:round;stroke-linejoin:round;stroke-width:7px" data-name="rslogo"/>
</svg>