<svg width="14" height="14" viewBox="0 0 14 14" fill="none" xmlns="http://www.w3.org/2000/svg">
<g id="streamline:travel-transportation-bus-transportation-travel-bus-transit-transport-motorcoach-public">
<g id="Group">
<path id="Vector" d="M11.5 0.5H2.5C1.94772 0.5 1.5 0.947715 1.5 1.5V11C1.5 11.5523 1.94772 12 2.5 12H11.5C12.0523 12 12.5 11.5523 12.5 11V1.5C12.5 0.947715 12.0523 0.5 11.5 0.5Z" stroke="#444444" stroke-linecap="round" stroke-linejoin="round"/>
<path id="Vector_2" d="M3.5 12V13.5M10.5 12V13.5M1.5 7H12.5" stroke="#444444" stroke-linecap="round" stroke-linejoin="round"/>
<path id="Vector_3" d="M4 10C4.27614 10 4.5 9.77614 4.5 9.5C4.5 9.22386 4.27614 9 4 9C3.72386 9 3.5 9.22386 3.5 9.5C3.5 9.77614 3.72386 10 4 10Z" stroke="#444444" stroke-linecap="round" stroke-linejoin="round"/>
<path id="Vector_4" d="M10 10C10.2761 10 10.5 9.77614 10.5 9.5C10.5 9.22386 10.2761 9 10 9C9.72386 9 9.5 9.22386 9.5 9.5C9.5 9.77614 9.72386 10 10 10Z" stroke="#444444" stroke-linecap="round" stroke-linejoin="round"/>
</g>
</g>
</svg>
